<?xml version="1.0" encoding="UTF-8"?>
<svg xmlns="http://www.w3.org/2000/svg" xmlns:xlink="http://www.w3.org/1999/xlink" width="24pt" height="24pt" viewBox="0 0 24 24" version="1.1">
<g id="surface1">
<path style=" stroke:none;fill-rule:nonzero;fill:rgb(0%,0%,0%);fill-opacity:1;" d="M 19.679688 1.921875 L 4.320312 1.921875 C 2.996094 1.921875 1.921875 2.996094 1.921875 4.320312 L 1.921875 19.679688 C 1.921875 21.003906 2.996094 22.078125 4.320312 22.078125 L 19.679688 22.078125 C 21.003906 22.078125 22.078125 21.003906 22.078125 19.679688 L 22.078125 4.320312 C 22.078125 2.996094 21.003906 1.921875 19.679688 1.921875 Z M 10.078125 17.28125 C 10.078125 17.808594 9.648438 18.238281 9.121094 18.238281 L 5.761719 18.238281 C 5.230469 18.238281 4.800781 17.808594 4.800781 17.28125 L 4.800781 5.761719 C 4.800781 5.230469 5.230469 4.800781 5.761719 4.800781 L 9.121094 4.800781 C 9.648438 4.800781 10.078125 5.230469 10.078125 5.761719 Z M 19.199219 11.519531 C 19.199219 12.046875 18.769531 12.480469 18.238281 12.480469 L 14.878906 12.480469 C 14.351562 12.480469 13.921875 12.046875 13.921875 11.519531 L 13.921875 5.761719 C 13.921875 5.230469 14.351562 4.800781 14.878906 4.800781 L 18.238281 4.800781 C 18.769531 4.800781 19.199219 5.230469 19.199219 5.761719 Z M 19.199219 11.519531 "/>
</g>
</svg>
